<?xml version="1.0" encoding="UTF-8"?>
<svg width="100mm" height="100.37mm" version="1.1" viewBox="0 0 100 100.37" xmlns="http://www.w3.org/2000/svg">
<g transform="translate(-135.49 -25.226)">
<g transform="translate(-1448.6 2389.2)">
<path d="m1660.2-2341.9-9.4867 5.172c1.1092 2.2565 1.9357 4.6589 2.433 7.1561 0.3242 1.6282 0.5019 3.5699 0.532 5.4765l10.785-1.666c-0.017-0.4747-0.04-0.9286-0.075-1.3224-0.4677-5.2689-1.8817-10.241-4.1884-14.816z" fill="#b80099" stroke-width=".1368"/>
<path transform="matrix(.26458 0 0 .26458 -76.036 96.989)" d="m6426.7-9301.3c-7.8096-0.038-15.647 0.5521-23.441 1.7578-32.039 4.9553-61.256 19.805-84.297 42.846-39.605 39.604-54.04 96.493-38.234 150.68 6.7589 23.172 19.152 44.356 36.441 62.293 24.058 24.958 54.359 40.241 89.496 45.143 8.9431 1.2476 29.746 1.2476 38.689 0 20.562-2.8687 41.576-9.9876 57.102-19.344l3.0254-1.8242 46.094 46.002c42.801 42.715 46.36 46.137 49.816 47.91 5.3087 2.7235 10.613 3.9639 16.654 3.8906 2.7273-0.038 5.4233-0.1625 5.9921-0.291 12.98-2.9049 22.919-11.824 26.977-24.209 1.1206-3.4193 1.3596-5.1225 1.377-9.8242 0.038-8.2549-2.0043-14.678-6.6172-20.885-0.9733-1.3099-21.788-22.385-46.252-46.832l-44.478-44.449 1.0859-1.8262c10.916-18.364 17.465-36.643 20.66-57.668 0.4735-3.1153 0.8252-7.1054 1.0566-11.359l-41.545 6.4511c-0.05 0.3418-0.093 0.6973-0.1484 1.0293-7.6517 45.752-42.018 81.825-86.957 91.275-12.298 2.5864-29.336 2.8974-41.543 0.7578-45.52-7.9782-81.039-42.414-90.201-87.449-6.5851-32.37 1.7643-66.404 22.627-92.223 4.3079-5.3314 13.398-14.145 18.857-18.283 28.534-21.628 64.987-27.875 98.117-18.361l18.838-36.756c-15.812-5.4788-32.43-8.3903-49.192-8.4492z" fill="#4f0a67" stroke-width=".51705"/>
<path d="m1621.7-2309.2c-3.1263-0.4917-7.2694-2.7763-9.1342-5.0371-6.2092-7.5273-3.5331-19.112 5.3728-23.259 3.6388-1.6944 9.1869-1.6923 12.832 0 5.4957 2.559 8.588 7.3645 8.5589 13.301-0.046 9.6273-8.1144 16.487-17.629 14.99z" fill="#b80099"/>
</g>
</g>
</svg>
